<svg xmlns="http://www.w3.org/2000/svg" xmlns:xlink="http://www.w3.org/1999/xlink" width="64" height="64" viewBox="0 0 64 64">
  <defs>
    <style>
      .cls-1 {
        fill: #fff;
        fill-rule: evenodd;
        filter: url(#filter);
      }
    </style>
    <filter id="filter" x="14.531" y="14.531" width="34.938" height="34.938" filterUnits="userSpaceOnUse">
      <feFlood result="flood" flood-color="#dadada"/>
      <feComposite result="composite" operator="in" in2="SourceGraphic"/>
      <feBlend result="blend" in2="SourceGraphic"/>
      <feFlood result="flood-2" flood-color="#ccddfe"/>
      <feComposite result="composite-2" operator="in" in2="SourceGraphic"/>
      <feBlend result="blend-2" in2="blend"/>
    </filter>
  </defs>
  <path id="index" class="cls-1" d="M25.223,14.543H46.548a2.909,2.909,0,0,1,2.909,2.909v0.01a2.909,2.909,0,0,1-2.909,2.909H25.223a2.909,2.909,0,0,1-2.909-2.909v-0.01A2.909,2.909,0,0,1,25.223,14.543Zm0,9.686H39.748a2.909,2.909,0,0,1,2.909,2.909v0.01a2.909,2.909,0,0,1-2.909,2.909H25.223a2.909,2.909,0,0,1-2.909-2.909v-0.01A2.909,2.909,0,0,1,25.223,24.229Zm0,9.714H44.605a2.909,2.909,0,0,1,2.909,2.909v0.01a2.909,2.909,0,0,1-2.909,2.909H25.223a2.909,2.909,0,0,1-2.909-2.909v-0.01A2.909,2.909,0,0,1,25.223,33.943Zm0,9.686H46.548a2.909,2.909,0,0,1,2.909,2.909v0.01a2.909,2.909,0,0,1-2.909,2.909H25.223a2.909,2.909,0,0,1-2.909-2.909v-0.01A2.909,2.909,0,0,1,25.223,43.629ZM17.452,14.543h0.01a2.909,2.909,0,0,1,2.909,2.909v0.01a2.909,2.909,0,0,1-2.909,2.909h-0.01a2.909,2.909,0,0,1-2.909-2.909v-0.01A2.909,2.909,0,0,1,17.452,14.543Zm0,9.686h0.01a2.909,2.909,0,0,1,2.909,2.909v0.01a2.909,2.909,0,0,1-2.909,2.909h-0.01a2.909,2.909,0,0,1-2.909-2.909v-0.01A2.909,2.909,0,0,1,17.452,24.229Zm0,9.714h0.01a2.909,2.909,0,0,1,2.909,2.909v0.01a2.909,2.909,0,0,1-2.909,2.909h-0.01a2.909,2.909,0,0,1-2.909-2.909v-0.01A2.909,2.909,0,0,1,17.452,33.943Zm0,9.686h0.01a2.909,2.909,0,0,1,2.909,2.909v0.01a2.909,2.909,0,0,1-2.909,2.909h-0.01a2.909,2.909,0,0,1-2.909-2.909v-0.01A2.909,2.909,0,0,1,17.452,43.629Z"/>
</svg>
